<svg xmlns="http://www.w3.org/2000/svg" viewBox="0 0 850 260" width="100%" style="background:#0d1117; border-radius: 12px; user-select: none;">
  <style>
    @keyframes blink { 0%, 100% { opacity: 1; } 50% { opacity: 0.2; } }
    .lamp-green { animation: blink 1.2s infinite; }
    .lamp-red { animation: blink 0.6s infinite; }
    .lamp-blue { animation: blink 1.8s infinite; }
  </style>

  <rect width="100%" height="100%" fill="#0d1117" rx="12"/>
  <rect x="10" y="10" width="830" height="240" fill="none" stroke="#21262d" stroke-width="2" rx="8"/>

  <g shape-rendering="crispEdges" transform="translate(55, 73)">
    <g fill="#238636">
      <g fill-opacity="0.9">
        <rect x="10" y="45" width="2" height="2"/>
        <rect x="0" y="30" width="3" height="3"/>
        <rect x="-5" y="55" width="2" height="2"/>
        <rect x="-10" y="70" width="3" height="3"/>
        <rect x="-15" y="40" width="2" height="2"/>
        <rect x="-20" y="85" width="3" height="3"/>
        <rect x="-25" y="60" width="2" height="2"/>
        <rect x="-30" y="95" width="2" height="2"/>
        <rect x="-35" y="50" width="3" height="3"/>
        <rect x="-40" y="75" width="2" height="2"/>
        <rect x="-15" y="105" width="3" height="3"/>
        <rect x="-30" y="65" width="2" height="2"/>
        <rect x="-35" y="85" width="2" height="2"/>
        <rect x="-38" y="105" width="2" height="2"/>
        <rect x="-42" y="65" width="2" height="2"/>
      </g>
      
      <g fill-opacity="0.6">
        <rect x="15" y="35" width="2" height="2"/>
        <rect x="5" y="65" width="2" height="2"/>
        <rect x="-2" y="80" width="3" height="3"/>
        <rect x="-8" y="20" width="2" height="2"/>
        <rect x="-12" y="95" width="2" height="2"/>
        <rect x="-18" y="50" width="3" height="3"/>
        <rect x="-22" y="105" width="2" height="2"/>
        <rect x="-28" y="30" width="2" height="2"/>
        <rect x="-32" y="70" width="3" height="3"/>
        <rect x="-38" y="115" width="2" height="2"/>
        <rect x="-42" y="40" width="2" height="2"/>
        <rect x="-25" y="95" width="3" height="3"/>
        <rect x="-32" y="55" width="2" height="2"/>
        <rect x="-38" y="105" width="2" height="2"/>
        <rect x="-40" y="75" width="3" height="3"/>
        <rect x="-36" y="90" width="2" height="2"/>
        <rect x="-43" y="85" width="2" height="2"/>
      </g>
      
      <g fill-opacity="0.3">
        <rect x="5" y="15" width="2" height="2"/>
        <rect x="0" y="90" width="2" height="2"/>
        <rect x="-10" y="5" width="2" height="2"/>
        <rect x="-15" y="110" width="2" height="2"/>
        <rect x="-25" y="15" width="2" height="2"/>
        <rect x="-30" y="120" width="2" height="2"/>
        <rect x="-35" y="5" width="2" height="2"/>
        <rect x="-40" y="125" width="2" height="2"/>
        <rect x="-25" y="25" width="2" height="2"/>
        <rect x="-20" y="115" width="2" height="2"/>
        <rect x="-15" y="40" width="2" height="2"/>
        <rect x="-10" y="125" width="2" height="2"/>
        <rect x="-35" y="60" width="2" height="2"/>
        <rect x="-20" y="110" width="2" height="2"/>
        <rect x="-25" y="80" width="2" height="2"/>
        <rect x="-30" y="95" width="2" height="2"/>
        <rect x="-41" y="110" width="2" height="2"/>
        <rect x="-43" y="45" width="2" height="2"/>
      </g>

      <g fill-opacity="0.8">
        <rect x="18" y="25" width="1" height="1"/>
        <rect x="12" y="50" width="1" height="1"/>
        <rect x="8" y="70" width="1" height="1"/>
        <rect x="0" y="45" width="1" height="1"/>
        <rect x="-5" y="35" width="1" height="1"/>
        <rect x="-8" y="85" width="1" height="1"/>
        <rect x="-12" y="60" width="1" height="1"/>
        <rect x="-15" y="100" width="1" height="1"/>
        <rect x="-18" y="28" width="1" height="1"/>
        <rect x="-20" y="75" width="1" height="1"/>
        <rect x="-25" y="45" width="1" height="1"/>
        <rect x="-28" y="110" width="1" height="1"/>
        <rect x="-30" y="55" width="1" height="1"/>
        <rect x="-33" y="80" width="1" height="1"/>
        <rect x="-35" y="30" width="1" height="1"/>
        <rect x="-38" y="65" width="1" height="1"/>
        <rect x="-40" y="95" width="1" height="1"/>
        <rect x="-42" y="50" width="1" height="1"/>
        <rect x="-43" y="85" width="1" height="1"/>
        <rect x="-14" y="20" width="1" height="1"/>
        <rect x="-22" y="12" width="1" height="1"/>
        <rect x="-28" y="125" width="1" height="1"/>
        <rect x="-36" y="115" width="1" height="1"/>
        <rect x="-39" y="15" width="1" height="1"/>
        <rect x="-44" y="70" width="1" height="1"/>
      </g>
    </g>

    <path d="M 26 22 L -40 -5 L -40 55 Z" fill="#FFF59D" opacity="0.15" shape-rendering="geometricPrecision"/>
    
    <rect x="36" y="8" width="36" height="6" fill="#E53935"/>
    <rect x="32" y="14" width="44" height="13" fill="#E53935"/>
    <rect x="36" y="24" width="40" height="3" fill="#212121"/>
    <rect x="26" y="18" width="10" height="9" fill="#424242"/>
    <rect x="26" y="19" width="4" height="6" fill="#FFF59D"/>
    <rect x="24" y="27" width="56" height="6" fill="#B71C1C"/>
    <rect x="36" y="33" width="36" height="33" fill="#FFD54F"/>
    <rect x="39" y="36" width="9" height="5" fill="#1A1A1A"/>
    <rect x="50" y="36" width="9" height="5" fill="#1A1A1A"/>
    <rect x="42" y="41" width="4" height="3" fill="#1A1A1A"/>
    <rect x="52" y="41" width="4" height="3" fill="#1A1A1A"/>
    <rect x="18" y="42" width="18" height="12" fill="#FF9800"/>
    <rect x="36" y="48" width="6" height="6" fill="#FF9800"/>
    <rect x="30" y="66" width="54" height="36" fill="#FFD54F"/>
    <rect x="24" y="72" width="6" height="18" fill="#FFC107"/>  
    <rect x="42" y="72" width="24" height="18" fill="#FFB300"/>
    <rect x="42" y="102" width="12" height="6" fill="#FF9800"/>
    <rect x="60" y="102" width="12" height="6" fill="#FF9800"/>
    <rect x="36" y="108" width="18" height="6" fill="#FF9800"/>
    <rect x="54" y="108" width="18" height="6" fill="#FF9800"/>
  </g>

  <g transform="translate(190, 74)" font-family="Courier New, Courier, monospace">
    <text x="0" y="28" font-weight="900" fill="#ffffff" font-size="32px" letter-spacing="4px">GEOGAGA</text>
    <text x="3" y="52" font-weight="bold" fill="#238636" font-size="14px" letter-spacing="6px">SERVER FLAVOR</text>
    <text x="3" y="78" fill="#8b949e" font-size="13px">Серверная фильтрация и маршрутизация</text>
    <text x="3" y="98" fill="#8b949e" font-size="13px">XRay • V2Ray • 3xui • Remnawave</text>
  </g>

  <g transform="translate(600, 50)" shape-rendering="crispEdges">
    <rect x="0" y="30" width="50" height="120" fill="#21262d" stroke="#000" stroke-width="2"/>
    <rect x="3" y="35" width="44" height="100" fill="#161b22" opacity="0.6"/>
    <rect x="5" y="40" width="40" height="10" fill="#30363d"/><rect x="7" y="42" width="6" height="6" fill="#238636" class="lamp-blue"/>
    <rect x="5" y="60" width="40" height="10" fill="#30363d"/><rect x="7" y="62" width="6" height="6" fill="#238636" class="lamp-green"/>
    
    <rect x="55" y="10" width="40" height="140" fill="#161b22" stroke="#000" stroke-width="1"/>
    <rect x="45" y="0" width="60" height="150" fill="#21262d" stroke="#000" stroke-width="2"/>
    <rect x="50" y="5" width="50" height="140" fill="#161b22" opacity="0.6"/>
    <rect x="53" y="15" width="44" height="8" fill="#30363d"/><rect x="55" y="16" width="6" height="6" fill="#238636" class="lamp-green"/>
    <rect x="53" y="45" width="44" height="8" fill="#30363d"/><rect x="55" y="46" width="6" height="6" fill="#238636" class="lamp-red"/>
    <rect x="53" y="75" width="44" height="8" fill="#30363d"/><rect x="55" y="76" width="6" height="6" fill="#238636" class="lamp-blue"/>
    <rect x="53" y="105" width="44" height="8" fill="#30363d"/><rect x="55" y="106" width="6" height="6" fill="#238636" class="lamp-green"/>
    
    <circle cx="5" cy="150" r="4" fill="#30363d"/><circle cx="45" cy="150" r="4" fill="#30363d"/><circle cx="95" cy="150" r="4" fill="#30363d"/>
  </g>
</svg>
