<svg xmlns="http://www.w3.org/2000/svg" viewBox="0 0 850 260" width="100%" style="background:#0d1117; border-radius: 12px; user-select: none;">
  <style>
    @keyframes blink { 0%, 100% { opacity: 1; } 50% { opacity: 0.2; } }
    .lamp-green { animation: blink 1.2s infinite; }
    .lamp-red { animation: blink 0.6s infinite; }
    .lamp-blue { animation: blink 1.8s infinite; }
  </style>

  <rect width="100%" height="100%" fill="#0d1117" rx="12"/>
  <rect x="10" y="10" width="830" height="240" fill="none" stroke="#21262d" stroke-width="2" rx="8"/>

  <g shape-rendering="crispEdges" transform="translate(55, 73)">
    <rect x="36" y="0" width="36" height="6" fill="#4E4E4E"/>
    <rect x="30" y="6" width="48" height="6" fill="#4E4E4E"/>
    <rect x="24" y="12" width="60" height="12" fill="#4E4E4E"/>
    <rect x="51" y="12" width="6" height="6" fill="#E53935"/>
    <rect x="24" y="24" width="60" height="6" fill="#3A3A3A"/>
    <rect x="24" y="30" width="12" height="24" fill="#3A3A3A"/>
    <rect x="72" y="30" width="12" height="24" fill="#3A3A3A"/>
    <rect x="36" y="30" width="36" height="24" fill="#FFD54F"/>
    <rect x="36" y="36" width="36" height="6" fill="#1A1A1A"/>
    <rect x="42" y="42" width="6" height="3" fill="#1A1A1A"/>
    <rect x="60" y="42" width="6" height="3" fill="#1A1A1A"/>
    <rect x="48" y="36" width="6" height="6" fill="#00E5FF"/>
    <rect x="18" y="42" width="18" height="12" fill="#FF9800"/>
    <rect x="36" y="48" width="6" height="6" fill="#FF9800"/>
    <rect x="36" y="54" width="36" height="12" fill="#FFD54F"/> 
    <rect x="30" y="66" width="54" height="36" fill="#FFD54F"/> 
    <rect x="24" y="72" width="6" height="18" fill="#FFC107"/>  
    <rect x="42" y="72" width="24" height="18" fill="#FFB300"/> 
    <rect x="42" y="102" width="12" height="6" fill="#FF9800"/>
    <rect x="60" y="102" width="12" height="6" fill="#FF9800"/>
    <rect x="36" y="108" width="18" height="6" fill="#FF9800"/>
    <rect x="54" y="108" width="18" height="6" fill="#FF9800"/>
  </g>

  <g transform="translate(190, 74)" font-family="Courier New, Courier, monospace">
    <text x="0" y="28" font-weight="900" fill="#ffffff" font-size="32px" letter-spacing="4px">GEOGAGA</text>
    <text x="3" y="52" font-weight="bold" fill="#f59e0b" font-size="14px" letter-spacing="6px">SERVER FLAVOR</text>
    <text x="3" y="78" fill="#8b949e" font-size="13px">Серверная фильтрация и маршрутизация</text>
    <text x="3" y="98" fill="#8b949e" font-size="13px">Xray • 3xui/Remnawave ready</text>
  </g>

  <g transform="translate(600, 50)" shape-rendering="crispEdges">
    <rect x="0" y="30" width="50" height="120" fill="#21262d" stroke="#000" stroke-width="2"/>
    <rect x="3" y="35" width="44" height="100" fill="#161b22" opacity="0.6"/>
    <rect x="5" y="40" width="40" height="10" fill="#30363d"/><rect x="7" y="42" width="6" height="6" fill="#58a6ff" class="lamp-blue"/>
    <rect x="5" y="60" width="40" height="10" fill="#30363d"/><rect x="7" y="62" width="6" height="6" fill="#238636" class="lamp-green"/>
    
    <rect x="55" y="10" width="40" height="140" fill="#161b22" stroke="#000" stroke-width="1"/>
    <rect x="45" y="0" width="60" height="150" fill="#21262d" stroke="#000" stroke-width="2"/>
    <rect x="50" y="5" width="50" height="140" fill="#161b22" opacity="0.6"/>
    <rect x="53" y="15" width="44" height="8" fill="#30363d"/><rect x="55" y="16" width="6" height="6" fill="#238636" class="lamp-green"/>
    <rect x="53" y="45" width="44" height="8" fill="#30363d"/><rect x="55" y="46" width="6" height="6" fill="#f85149" class="lamp-red"/>
    <rect x="53" y="75" width="44" height="8" fill="#30363d"/><rect x="55" y="76" width="6" height="6" fill="#58a6ff" class="lamp-blue"/>
    <rect x="53" y="105" width="44" height="8" fill="#30363d"/><rect x="55" y="106" width="6" height="6" fill="#238636" class="lamp-green"/>
    
    <circle cx="5" cy="150" r="4" fill="#30363d"/><circle cx="45" cy="150" r="4" fill="#30363d"/><circle cx="95" cy="150" r="4" fill="#30363d"/>
  </g>
</svg>
